<svg id="Layer_1" data-name="Layer 1" xmlns="http://www.w3.org/2000/svg" viewBox="0 0 129 129"><defs><style>.cls-1{fill:#cecbe6;}.cls-2{fill:#231f20;}.cls-3{fill:#ed1f24;}.cls-4{fill:#933;}.cls-5{fill:#cccc64;}.cls-6{fill:#a9d9bc;}</style></defs><title>m</title><rect class="cls-1" width="129" height="129"/><path class="cls-2" d="M88.91,0H129V129H103V41.75q0-3.77.09-10.55t.09-10.46L78,129H50.87L25.78,20.74q0,3.68.09,10.46T26,41.75V129H0V0H40.54L64.82,101.43Z"/><path class="cls-3" d="M123,6V123H6V6H123m6-6H0V129H129V0Z"/><path class="cls-4" d="M112,17v95H17V17h95m5-5H12V117H117V12Z"/><path class="cls-5" d="M102,27v75H27V27h75m4-4H23v83h83V23Z"/><path class="cls-6" d="M95,34V95H34V34H95m3-3H31V98H98V31Z"/><path class="cls-1" d="M92,37V92H37V37H92m6-6H31V98H98V31Z"/></svg>